<mxfile host="app.diagrams.net" agent="Mozilla/5.0 (Windows NT 10.0; Win64; x64) AppleWebKit/537.36 (KHTML, like Gecko) Chrome/140.0.0.0 Safari/537.36" version="28.2.5">
  <diagram name="ERD Logical - FPTU Lab Events" id="logical-erd">
    <mxGraphModel dx="1426" dy="1743" grid="0" gridSize="10" guides="1" tooltips="1" connect="1" arrows="1" fold="1" page="1" pageScale="1" pageWidth="1400" pageHeight="1000" math="0" shadow="0">
      <root>
        <mxCell id="0" />
        <mxCell id="1" parent="0" />
        <mxCell id="title" value="&lt;b&gt;&lt;font style=&quot;font-size: 18px;&quot;&gt;ERD LOGICAL - FPTU LAB EVENTS SYSTEM&lt;/font&gt;&lt;/b&gt;&lt;div&gt;&lt;br/&gt;&lt;/div&gt;" style="text;html=1;strokeColor=none;fillColor=none;align=center;verticalAlign=middle;whiteSpace=wrap;rounded=0;" parent="1" vertex="1">
          <mxGeometry x="200" y="-160" width="700" height="40" as="geometry" />
        </mxCell>
        <mxCell id="user-entity" value="&lt;div style=&quot;text-align: left;&quot;&gt;&lt;b&gt;USER&lt;/b&gt;&lt;/div&gt;&lt;hr&gt;&lt;div style=&quot;text-align: left;&quot;&gt;&lt;u&gt;UserID&lt;/u&gt;: UUID&lt;/div&gt;&lt;div style=&quot;text-align: left;&quot;&gt;Email: VARCHAR(255)&lt;/div&gt;&lt;div style=&quot;text-align: left;&quot;&gt;PasswordHash: TEXT&lt;/div&gt;&lt;div style=&quot;text-align: left;&quot;&gt;FullName: VARCHAR(255)&lt;/div&gt;&lt;div style=&quot;text-align: left;&quot;&gt;Username: VARCHAR(100)&lt;/div&gt;&lt;div style=&quot;text-align: left;&quot;&gt;MSSV: VARCHAR(50)&lt;/div&gt;&lt;div style=&quot;text-align: left;&quot;&gt;Phone: VARCHAR(20)&lt;/div&gt;&lt;div style=&quot;text-align: left;&quot;&gt;Status: ENUM&lt;/div&gt;&lt;div style=&quot;text-align: left;&quot;&gt;CreatedAt: TIMESTAMP&lt;/div&gt;" style="rounded=0;whiteSpace=wrap;html=1;fillColor=#dae8fc;strokeColor=#6c8ebf;fontSize=11;spacingLeft=5;spacingRight=5;verticalAlign=top;" parent="1" vertex="1">
          <mxGeometry x="50" y="110" width="180" height="180" as="geometry" />
        </mxCell>
        <mxCell id="role-entity" value="&lt;div style=&quot;text-align: left;&quot;&gt;&lt;b&gt;ROLE&lt;/b&gt;&lt;/div&gt;&lt;hr&gt;&lt;div style=&quot;text-align: left;&quot;&gt;&lt;u&gt;RoleID&lt;/u&gt;: UUID&lt;/div&gt;&lt;div style=&quot;text-align: left;&quot;&gt;Name: VARCHAR(100)&lt;/div&gt;&lt;div style=&quot;text-align: left;&quot;&gt;Description: TEXT&lt;/div&gt;&lt;div style=&quot;text-align: left;&quot;&gt;CreatedAt: TIMESTAMP&lt;/div&gt;" style="rounded=0;whiteSpace=wrap;html=1;fillColor=#dae8fc;strokeColor=#6c8ebf;fontSize=11;spacingLeft=5;spacingRight=5;verticalAlign=top;" parent="1" vertex="1">
          <mxGeometry x="416" y="-10" width="180" height="100" as="geometry" />
        </mxCell>
        <mxCell id="lab-entity" value="&lt;div style=&quot;text-align: left;&quot;&gt;&lt;b&gt;LAB&lt;/b&gt;&lt;/div&gt;&lt;hr&gt;&lt;div style=&quot;text-align: left;&quot;&gt;&lt;u&gt;LabID&lt;/u&gt;: UUID&lt;/div&gt;&lt;div style=&quot;text-align: left;&quot;&gt;Code: VARCHAR(50)&lt;/div&gt;&lt;div style=&quot;text-align: left;&quot;&gt;Name: VARCHAR(255)&lt;/div&gt;&lt;div style=&quot;text-align: left;&quot;&gt;Location: VARCHAR(255)&lt;/div&gt;&lt;div style=&quot;text-align: left;&quot;&gt;Capacity: INTEGER&lt;/div&gt;&lt;div style=&quot;text-align: left;&quot;&gt;OpenTime: TIME&lt;/div&gt;&lt;div style=&quot;text-align: left;&quot;&gt;CloseTime: TIME&lt;/div&gt;&lt;div style=&quot;text-align: left;&quot;&gt;IsActive: BOOLEAN&lt;/div&gt;" style="rounded=0;whiteSpace=wrap;html=1;fillColor=#d5e8d4;strokeColor=#82b366;fontSize=11;spacingLeft=5;spacingRight=5;verticalAlign=top;" parent="1" vertex="1">
          <mxGeometry x="80" y="340" width="180" height="160" as="geometry" />
        </mxCell>
        <mxCell id="equipment-entity" value="&lt;div style=&quot;text-align: left;&quot;&gt;&lt;b&gt;EQUIPMENT&lt;/b&gt;&lt;/div&gt;&lt;hr&gt;&lt;div style=&quot;text-align: left;&quot;&gt;&lt;u&gt;EquipmentID&lt;/u&gt;: UUID&lt;/div&gt;&lt;div style=&quot;text-align: left;&quot;&gt;Code: VARCHAR(50)&lt;/div&gt;&lt;div style=&quot;text-align: left;&quot;&gt;Name: VARCHAR(255)&lt;/div&gt;&lt;div style=&quot;text-align: left;&quot;&gt;Category: VARCHAR(100)&lt;/div&gt;&lt;div style=&quot;text-align: left;&quot;&gt;QuantityTotal: INTEGER&lt;/div&gt;&lt;div style=&quot;text-align: left;&quot;&gt;QuantityAvailable: INTEGER&lt;/div&gt;&lt;div style=&quot;text-align: left;&quot;&gt;Status: ENUM&lt;/div&gt;" style="rounded=0;whiteSpace=wrap;html=1;fillColor=none;strokeColor=#82b366;fontSize=11;spacingLeft=5;spacingRight=5;verticalAlign=top;" parent="1" vertex="1">
          <mxGeometry x="333" y="529" width="180" height="140" as="geometry" />
        </mxCell>
        <mxCell id="booking-entity" value="&lt;div style=&quot;text-align: left;&quot;&gt;&lt;b&gt;BOOKING&lt;/b&gt;&lt;/div&gt;&lt;hr&gt;&lt;div style=&quot;text-align: left;&quot;&gt;&lt;u&gt;BookingID&lt;/u&gt;: UUID&lt;/div&gt;&lt;div style=&quot;text-align: left;&quot;&gt;LabID: UUID (FK)&lt;/div&gt;&lt;div style=&quot;text-align: left;&quot;&gt;UserID: UUID (FK)&lt;/div&gt;&lt;div style=&quot;text-align: left;&quot;&gt;Title: VARCHAR(255)&lt;/div&gt;&lt;div style=&quot;text-align: left;&quot;&gt;Purpose: TEXT&lt;/div&gt;&lt;div style=&quot;text-align: left;&quot;&gt;StartAt: TIMESTAMP&lt;/div&gt;&lt;div style=&quot;text-align: left;&quot;&gt;EndAt: TIMESTAMP&lt;/div&gt;&lt;div style=&quot;text-align: left;&quot;&gt;Status: ENUM&lt;/div&gt;&lt;div style=&quot;text-align: left;&quot;&gt;CreatedAt: TIMESTAMP&lt;/div&gt;" style="rounded=0;whiteSpace=wrap;html=1;fillColor=#fff2cc;strokeColor=#d6b656;fontSize=11;spacingLeft=5;spacingRight=5;verticalAlign=top;" parent="1" vertex="1">
          <mxGeometry x="410" y="270" width="180" height="180" as="geometry" />
        </mxCell>
        <mxCell id="event-entity" value="&lt;div style=&quot;text-align: left;&quot;&gt;&lt;b&gt;EVENT&lt;/b&gt;&lt;/div&gt;&lt;hr&gt;&lt;div style=&quot;text-align: left;&quot;&gt;&lt;u&gt;EventID&lt;/u&gt;: UUID&lt;/div&gt;&lt;div style=&quot;text-align: left;&quot;&gt;OrganizerID: UUID (FK)&lt;/div&gt;&lt;div style=&quot;text-align: left;&quot;&gt;Title: VARCHAR(255)&lt;/div&gt;&lt;div style=&quot;text-align: left;&quot;&gt;Description: TEXT&lt;/div&gt;&lt;div style=&quot;text-align: left;&quot;&gt;Capacity: INTEGER&lt;/div&gt;&lt;div style=&quot;text-align: left;&quot;&gt;StartAt: TIMESTAMP&lt;/div&gt;&lt;div style=&quot;text-align: left;&quot;&gt;EndAt: TIMESTAMP&lt;/div&gt;&lt;div style=&quot;text-align: left;&quot;&gt;Status: ENUM&lt;/div&gt;&lt;div style=&quot;text-align: left;&quot;&gt;Deadline: TIMESTAMP&lt;/div&gt;" style="rounded=0;whiteSpace=wrap;html=1;fillColor=#e1d5e7;strokeColor=#9673a6;fontSize=11;spacingLeft=5;spacingRight=5;verticalAlign=top;" parent="1" vertex="1">
          <mxGeometry x="627" y="92" width="180" height="180" as="geometry" />
        </mxCell>
        <mxCell id="approval-entity" value="&lt;div style=&quot;text-align: left;&quot;&gt;&lt;b&gt;APPROVAL&lt;/b&gt;&lt;/div&gt;&lt;hr&gt;&lt;div style=&quot;text-align: left;&quot;&gt;&lt;u&gt;ApprovalID&lt;/u&gt;: UUID&lt;/div&gt;&lt;div style=&quot;text-align: left;&quot;&gt;BookingID: UUID (FK)&lt;/div&gt;&lt;div style=&quot;text-align: left;&quot;&gt;ApproverID: UUID (FK)&lt;/div&gt;&lt;div style=&quot;text-align: left;&quot;&gt;Level: INTEGER&lt;/div&gt;&lt;div style=&quot;text-align: left;&quot;&gt;Decision: ENUM&lt;/div&gt;&lt;div style=&quot;text-align: left;&quot;&gt;Comment: TEXT&lt;/div&gt;&lt;div style=&quot;text-align: left;&quot;&gt;DecidedAt: TIMESTAMP&lt;/div&gt;" style="rounded=0;whiteSpace=wrap;html=1;fillColor=#fff2cc;strokeColor=#d6b656;fontSize=11;spacingLeft=5;spacingRight=5;verticalAlign=top;" parent="1" vertex="1">
          <mxGeometry x="560" y="560" width="180" height="140" as="geometry" />
        </mxCell>
        <mxCell id="registration-entity" value="&lt;div style=&quot;text-align: left;&quot;&gt;&lt;b&gt;EVENT REGISTRATION&lt;/b&gt;&lt;/div&gt;&lt;hr&gt;&lt;div style=&quot;text-align: left;&quot;&gt;&lt;u&gt;RegistrationID&lt;/u&gt;: UUID&lt;/div&gt;&lt;div style=&quot;text-align: left;&quot;&gt;EventID: UUID (FK)&lt;/div&gt;&lt;div style=&quot;text-align: left;&quot;&gt;UserID: UUID (FK)&lt;/div&gt;&lt;div style=&quot;text-align: left;&quot;&gt;RegistrationStatus: ENUM&lt;/div&gt;&lt;div style=&quot;text-align: left;&quot;&gt;CheckinCode: VARCHAR(50)&lt;/div&gt;&lt;div style=&quot;text-align: left;&quot;&gt;CheckedInAt: TIMESTAMP&lt;/div&gt;&lt;div style=&quot;text-align: left;&quot;&gt;CreatedAt: TIMESTAMP&lt;/div&gt;" style="rounded=0;whiteSpace=wrap;html=1;fillColor=#e1d5e7;strokeColor=#9673a6;fontSize=11;spacingLeft=5;spacingRight=5;verticalAlign=top;" parent="1" vertex="1">
          <mxGeometry x="630" y="330" width="180" height="140" as="geometry" />
        </mxCell>
        <mxCell id="attendance-entity" value="&lt;div style=&quot;text-align: left;&quot;&gt;&lt;b&gt;ATTENDANCE&lt;/b&gt;&lt;/div&gt;&lt;hr&gt;&lt;div style=&quot;text-align: left;&quot;&gt;&lt;u&gt;AttendanceID&lt;/u&gt;: UUID&lt;/div&gt;&lt;div style=&quot;text-align: left;&quot;&gt;ReservationID: UUID (FK)&lt;/div&gt;&lt;div style=&quot;text-align: left;&quot;&gt;UserID: UUID (FK)&lt;/div&gt;&lt;div style=&quot;text-align: left;&quot;&gt;CheckedInAt: TIMESTAMP&lt;/div&gt;&lt;div style=&quot;text-align: left;&quot;&gt;CheckedOutAt: TIMESTAMP&lt;/div&gt;&lt;div style=&quot;text-align: left;&quot;&gt;Method: ENUM&lt;/div&gt;" style="rounded=0;whiteSpace=wrap;html=1;fillColor=#f5f5f5;strokeColor=#666666;fontSize=11;spacingLeft=5;spacingRight=5;verticalAlign=top;" parent="1" vertex="1">
          <mxGeometry x="850" y="340" width="180" height="120" as="geometry" />
        </mxCell>
        <mxCell id="notification-entity" value="&lt;div style=&quot;text-align: left;&quot;&gt;&lt;b&gt;NOTIFICATION&lt;/b&gt;&lt;/div&gt;&lt;hr&gt;&lt;div style=&quot;text-align: left;&quot;&gt;&lt;u&gt;NotificationID&lt;/u&gt;: UUID&lt;/div&gt;&lt;div style=&quot;text-align: left;&quot;&gt;UserID: UUID (FK)&lt;/div&gt;&lt;div style=&quot;text-align: left;&quot;&gt;Title: VARCHAR(255)&lt;/div&gt;&lt;div style=&quot;text-align: left;&quot;&gt;Body: TEXT&lt;/div&gt;&lt;div style=&quot;text-align: left;&quot;&gt;Channel: ENUM&lt;/div&gt;&lt;div style=&quot;text-align: left;&quot;&gt;Type: VARCHAR(100)&lt;/div&gt;&lt;div style=&quot;text-align: left;&quot;&gt;SentAt: TIMESTAMP&lt;/div&gt;" style="rounded=0;whiteSpace=wrap;html=1;fillColor=#f5f5f5;strokeColor=#666666;fontSize=11;spacingLeft=5;spacingRight=5;verticalAlign=top;" parent="1" vertex="1">
          <mxGeometry x="100" y="-80" width="180" height="140" as="geometry" />
        </mxCell>
        <mxCell id="rel-user-role" value="" style="endArrow=ERmany;startArrow=ERmany;html=1;exitX=1;exitY=0.25;exitDx=0;exitDy=0;entryX=0;entryY=0.5;entryDx=0;entryDy=0;strokeWidth=2;endFill=0;startFill=0;" parent="1" source="user-entity" target="role-entity" edge="1">
          <mxGeometry width="50" height="50" relative="1" as="geometry">
            <mxPoint x="500" y="400" as="sourcePoint" />
            <mxPoint x="550" y="350" as="targetPoint" />
          </mxGeometry>
        </mxCell>
        <mxCell id="rel-user-booking" value="" style="endArrow=ERmany;startArrow=ERone;html=1;exitX=0.5;exitY=1;exitDx=0;exitDy=0;entryX=0;entryY=0.25;entryDx=0;entryDy=0;strokeWidth=2;endFill=0;startFill=0;edgeStyle=orthogonalEdgeStyle;" parent="1" source="user-entity" target="booking-entity" edge="1">
          <mxGeometry width="50" height="50" relative="1" as="geometry">
            <mxPoint x="500" y="400" as="sourcePoint" />
            <mxPoint x="550" y="350" as="targetPoint" />
          </mxGeometry>
        </mxCell>
        <mxCell id="rel-lab-booking" value="" style="endArrow=ERmany;startArrow=ERone;html=1;exitX=1;exitY=0.5;exitDx=0;exitDy=0;entryX=0;entryY=0.5;entryDx=0;entryDy=0;strokeWidth=2;endFill=0;startFill=0;" parent="1" source="lab-entity" target="booking-entity" edge="1">
          <mxGeometry width="50" height="50" relative="1" as="geometry">
            <mxPoint x="500" y="500" as="sourcePoint" />
            <mxPoint x="550" y="450" as="targetPoint" />
          </mxGeometry>
        </mxCell>
        <mxCell id="rel-lab-equipment" value="" style="endArrow=ERmany;startArrow=ERmany;html=1;exitX=1;exitY=0.75;exitDx=0;exitDy=0;entryX=0;entryY=0.5;entryDx=0;entryDy=0;strokeWidth=2;endFill=0;startFill=0;" parent="1" source="lab-entity" target="equipment-entity" edge="1">
          <mxGeometry width="50" height="50" relative="1" as="geometry">
            <mxPoint x="400" y="500" as="sourcePoint" />
            <mxPoint x="450" y="450" as="targetPoint" />
          </mxGeometry>
        </mxCell>
        <mxCell id="rel-booking-approval" value="" style="endArrow=ERmany;startArrow=ERone;html=1;exitX=0.5;exitY=1;exitDx=0;exitDy=0;entryX=0.5;entryY=0;entryDx=0;entryDy=0;strokeWidth=2;endFill=0;startFill=0;" parent="1" source="booking-entity" target="approval-entity" edge="1">
          <mxGeometry width="50" height="50" relative="1" as="geometry">
            <mxPoint x="600" y="600" as="sourcePoint" />
            <mxPoint x="650" y="550" as="targetPoint" />
          </mxGeometry>
        </mxCell>
        <mxCell id="rel-user-event" value="" style="endArrow=ERmany;startArrow=ERone;html=1;exitX=1;exitY=0.5;exitDx=0;exitDy=0;entryX=0;entryY=0.25;entryDx=0;entryDy=0;strokeWidth=2;endFill=0;startFill=0;edgeStyle=orthogonalEdgeStyle;" parent="1" source="user-entity" target="event-entity" edge="1">
          <mxGeometry width="50" height="50" relative="1" as="geometry">
            <mxPoint x="600" y="300" as="sourcePoint" />
            <mxPoint x="650" y="250" as="targetPoint" />
          </mxGeometry>
        </mxCell>
        <mxCell id="rel-event-registration" value="" style="endArrow=ERmany;startArrow=ERone;html=1;exitX=0.5;exitY=1;exitDx=0;exitDy=0;entryX=0.5;entryY=0;entryDx=0;entryDy=0;strokeWidth=2;endFill=0;startFill=0;" parent="1" source="event-entity" target="registration-entity" edge="1">
          <mxGeometry width="50" height="50" relative="1" as="geometry">
            <mxPoint x="800" y="400" as="sourcePoint" />
            <mxPoint x="850" y="350" as="targetPoint" />
          </mxGeometry>
        </mxCell>
        <mxCell id="rel-registration-attendance" value="" style="endArrow=ERmany;startArrow=ERone;html=1;exitX=1;exitY=0.5;exitDx=0;exitDy=0;entryX=0;entryY=0.5;entryDx=0;entryDy=0;strokeWidth=2;endFill=0;startFill=0;" parent="1" source="registration-entity" target="attendance-entity" edge="1">
          <mxGeometry width="50" height="50" relative="1" as="geometry">
            <mxPoint x="900" y="500" as="sourcePoint" />
            <mxPoint x="950" y="450" as="targetPoint" />
          </mxGeometry>
        </mxCell>
        <mxCell id="rel-user-notification" value="" style="endArrow=ERmany;startArrow=ERone;html=1;exitX=1;exitY=0.75;exitDx=0;exitDy=0;entryX=0;entryY=0.5;entryDx=0;entryDy=0;strokeWidth=2;endFill=0;startFill=0;edgeStyle=orthogonalEdgeStyle;" parent="1" source="user-entity" target="notification-entity" edge="1">
          <mxGeometry width="50" height="50" relative="1" as="geometry">
            <mxPoint x="800" y="300" as="sourcePoint" />
            <mxPoint x="850" y="250" as="targetPoint" />
          </mxGeometry>
        </mxCell>
        <mxCell id="legend-box" value="&lt;div style=&quot;text-align: left;&quot;&gt;&lt;b&gt;Note&lt;/b&gt;&lt;/div&gt;&lt;div style=&quot;text-align: left;&quot;&gt;&lt;b&gt;&amp;nbsp;&lt;/b&gt;&lt;u&gt;Underline&lt;/u&gt; = Primary Key&lt;/div&gt;&lt;div style=&quot;text-align: left;&quot;&gt;(FK) = Foreign Key&lt;/div&gt;&lt;div style=&quot;text-align: left;&quot;&gt;ENUM = Enumeration&lt;/div&gt;&lt;hr&gt;&lt;div style=&quot;text-align: left;&quot;&gt;▸─ = One-to-Many&lt;/div&gt;&lt;div style=&quot;text-align: left;&quot;&gt;◂──▸ = Many-to-Many&lt;/div&gt;" style="rounded=0;whiteSpace=wrap;html=1;fillColor=#f5f5f5;strokeColor=#666666;fontSize=11;spacingLeft=10;verticalAlign=top;" parent="1" vertex="1">
          <mxGeometry x="80" y="560" width="180" height="140" as="geometry" />
        </mxCell>
        <mxCell id="color-auth" value="Users &amp; Auth" style="rounded=0;whiteSpace=wrap;html=1;fillColor=#dae8fc;strokeColor=#6c8ebf;fontSize=10;" parent="1" vertex="1">
          <mxGeometry x="80" y="770" width="100" height="25" as="geometry" />
        </mxCell>
        <mxCell id="color-labs" value="Labs" style="rounded=0;whiteSpace=wrap;html=1;fillColor=#d5e8d4;strokeColor=#82b366;fontSize=10;" parent="1" vertex="1">
          <mxGeometry x="190" y="770" width="100" height="25" as="geometry" />
        </mxCell>
        <mxCell id="color-booking" value="Bookings" style="rounded=0;whiteSpace=wrap;html=1;fillColor=#fff2cc;strokeColor=#d6b656;fontSize=10;" parent="1" vertex="1">
          <mxGeometry x="300" y="770" width="100" height="25" as="geometry" />
        </mxCell>
        <mxCell id="color-events" value="Events" style="rounded=0;whiteSpace=wrap;html=1;fillColor=#e1d5e7;strokeColor=#9673a6;fontSize=10;" parent="1" vertex="1">
          <mxGeometry x="410" y="770" width="100" height="25" as="geometry" />
        </mxCell>
        <mxCell id="color-support" value="Supporting" style="rounded=0;whiteSpace=wrap;html=1;fillColor=#f5f5f5;strokeColor=#666666;fontSize=10;" parent="1" vertex="1">
          <mxGeometry x="520" y="770" width="100" height="25" as="geometry" />
        </mxCell>
      </root>
    </mxGraphModel>
  </diagram>
</mxfile>
